<svg xmlns="http://www.w3.org/2000/svg" width="297.873" height="297.873" viewBox="0 0 297.873 297.873">
  <title>45</title>
  <g>
    <path d="M272.348,147.817h0A124.575,124.575,0,0,0,173.813,26a21.5,21.5,0,0,0-26,21V126.34a21.478,21.478,0,0,1-21.477,21.477H47.006a21.5,21.5,0,0,0-21,26,124.575,124.575,0,0,0,121.813,98.535h0A124.53,124.53,0,0,0,272.348,147.817Z" fill="#ffad1c"/>
    <g>
      <circle cx="148.936" cy="148.936" r="146.387" fill="none" stroke="#001171" stroke-linecap="round" stroke-linejoin="round" stroke-width="5.098"/>
      <g>
        <circle cx="148.936" cy="27.851" r="4.782" fill="#001171"/>
        <circle cx="148.936" cy="270.022" r="4.782" fill="#001171"/>
        <circle cx="270.022" cy="148.936" r="4.782" fill="#001171"/>
        <circle cx="27.851" cy="148.936" r="4.782" fill="#001171"/>
      </g>
    </g>
    <polyline points="81.877 61.534 148.936 153.718 188.09 107.626" fill="none" stroke="#001171" stroke-linecap="round" stroke-linejoin="round" stroke-width="5.098"/>
  </g>
</svg>
