<svg xmlns="http://www.w3.org/2000/svg" width="197.94" height="203.145" viewBox="0 0 197.94 203.145">
  <title>chani angry</title>
  <g>
    <g>
      <line x1="82.496" y1="169.291" x2="82.496" y2="197.676" fill="none" stroke="#001171" stroke-linecap="round" stroke-linejoin="round" stroke-width="3.359"/>
      <line x1="115.07" y1="169.291" x2="115.07" y2="197.676" fill="none" stroke="#001171" stroke-linecap="round" stroke-linejoin="round" stroke-width="3.359"/>
      <path d="M76.105,201.466s5.478-4.7,12.782,0" fill="none" stroke="#001171" stroke-linecap="round" stroke-linejoin="round" stroke-width="3.359"/>
      <path d="M108.678,201.466s5.479-4.7,12.783,0" fill="none" stroke="#001171" stroke-linecap="round" stroke-linejoin="round" stroke-width="3.359"/>
    </g>
    <path d="M134.248,162.076,192.441,61.284c15.679-27.158-4.07-64.167-35.279-61.1C142.6,1.609,126.98,6.16,98.922,6.16S55.32,1.611,40.777.179C9.569-2.892-10.181,34.126,5.5,61.284L63.691,162.076C79.37,189.234,118.569,189.234,134.248,162.076Z" fill="#ffad1c"/>
    <line x1="64.723" y1="45.096" x2="86.996" y2="50.921" fill="none" stroke="#001171" stroke-linecap="round" stroke-linejoin="round" stroke-width="3.359"/>
    <line x1="133.216" y1="45.096" x2="110.943" y2="50.921" fill="none" stroke="#001171" stroke-linecap="round" stroke-linejoin="round" stroke-width="3.359"/>
    <path d="M85.066,62.355A26.816,26.816,0,0,1,101.61,58.5a26.164,26.164,0,0,1,11.167,3.857" fill="none" stroke="#001171" stroke-linecap="round" stroke-linejoin="round" stroke-width="3.359"/>
    <circle cx="79.963" cy="51.439" r="2.837" fill="#001171"/>
    <circle cx="116.962" cy="51.439" r="2.837" fill="#001171"/>
    <path d="M39.735,73.553,9.6,95.166l32.809,16.2s-12.467,7.72-2.919,16.032" fill="none" stroke="#001171" stroke-linecap="round" stroke-linejoin="round" stroke-width="3.359"/>
    <path d="M158.4,73.553l30.139,21.613-32.809,16.2s12.467,7.72,2.919,16.032" fill="none" stroke="#001171" stroke-linecap="round" stroke-linejoin="round" stroke-width="3.359"/>
  </g>
</svg>
