<svg xmlns="http://www.w3.org/2000/svg" width="263.987" height="200.6" viewBox="0 0 263.987 200.6">
  <title>chani calm_1</title>
  <g>
    <path d="M226.846,94.174c1.612,9.243,8.123,46.568-15.237,72.312-20.978,23.118-52.914,22.426-78.937,21.862-24.848-.538-65.968-1.429-86.254-31.039C30.392,133.916,36.192,105.476,38.5,94.174,45.909,57.838,77.261.029,132.672,0,186.559-.028,219.945,54.614,226.846,94.174Z" fill="#ffad1c"/>
    <path d="M63.686,65.375c-.137,1.663-3.67,40.945-20.033,52.46a28.526,28.526,0,0,1-11.448,4.77c-8.7,1.139-15.624-3.07-18.124-4.77a9.407,9.407,0,0,1-6.2,2.385,9.407,9.407,0,0,1-6.2-2.385" fill="none" stroke="#001171" stroke-linecap="round" stroke-linejoin="round" stroke-width="3.359"/>
    <path d="M200.3,63.325c.136,1.663,3.669,40.945,20.032,52.46a28.537,28.537,0,0,0,11.448,4.77c8.7,1.139,15.624-3.07,18.125-4.77a9.253,9.253,0,0,0,12.4,0" fill="none" stroke="#001171" stroke-linecap="round" stroke-linejoin="round" stroke-width="3.359"/>
    <path d="M101.843,46.29a15.3,15.3,0,0,0,19.079,0" fill="none" stroke="#001171" stroke-linecap="round" stroke-linejoin="round" stroke-width="3.359"/>
    <path d="M135.769,46.29a15.3,15.3,0,0,0,19.078,0" fill="none" stroke="#001171" stroke-linecap="round" stroke-linejoin="round" stroke-width="3.359"/>
    <line x1="120.922" y1="60.122" x2="138.57" y2="60.122" fill="none" stroke="#001171" stroke-linecap="round" stroke-linejoin="round" stroke-width="3.359"/>
    <path d="M108.059,168.394s-34.818-16.694-37.2-7.631c-1.749,6.644,70.618,38.508,83.783,33.351.93-.364,4.47-2.055,8.272-.917,4.163,1.246,8.109,5.723,8.109,5.723h0" fill="none" stroke="#001171" stroke-linecap="round" stroke-linejoin="round" stroke-width="3.359"/>
    <path d="M158.171,168.394s34.818-16.694,37.2-7.631c1.749,6.644-70.618,38.508-83.783,33.351-.93-.364-4.47-2.055-8.272-.917-4.163,1.246-8.109,5.723-8.109,5.723" fill="none" stroke="#001171" stroke-linecap="round" stroke-linejoin="round" stroke-width="3.359"/>
  </g>
</svg>
