<svg xmlns="http://www.w3.org/2000/svg" width="183.113" height="216.289" viewBox="0 0 183.113 216.289">
  <title>chani sad</title>
  <g>
    <path d="M74.471,194.53l-3.2,20.08s1.351-1.2,5.763,0" fill="none" stroke="#001171" stroke-linecap="round" stroke-linejoin="round" stroke-width="3.359"/>
    <path d="M111.824,194.53l3.2,20.08s-1.351-1.2-5.764,0" fill="none" stroke="#001171" stroke-linecap="round" stroke-linejoin="round" stroke-width="3.359"/>
    <g>
      <path d="M111.7,197.771H66.53a59.442,59.442,0,0,1-12.146-2.416c-24.99-7.768-37.843-30.133-42.234-38.817-1.917-3.792-6.436-11.568-9.3-22.442-12.189-46.361,18.382-88.19,22-92.987,7.228-9.588,21.159-27.558,46.539-36.333A90.092,90.092,0,0,1,116.705,1.51c22.154,4.17,42.573,16.966,41.232,21.636-.7,2.428-7.855,2.586-22.169,2.9a218.149,218.149,0,0,1-24.072-.793,64.254,64.254,0,0,1,27.054,7.281c34.077,18.177,45.565,66.916,36.621,101.56-2.766,10.714-7.255,18.406-9.3,22.442-4.391,8.684-17.243,31.049-42.234,38.817A59.433,59.433,0,0,1,111.7,197.771Z" fill="#ffad1c"/>
      <path d="M79.485,85.206a21.712,21.712,0,0,1,18.291,0" fill="none" stroke="#001171" stroke-linecap="round" stroke-linejoin="round" stroke-width="3.359"/>
    </g>
    <path d="M67.343,73.191s8.979,1.666,13-7.786" fill="none" stroke="#001171" stroke-linecap="round" stroke-linejoin="round" stroke-width="3.359"/>
    <path d="M109.918,73.191s-8.979,1.666-13-7.786" fill="none" stroke="#001171" stroke-linecap="round" stroke-linejoin="round" stroke-width="3.359"/>
    <circle cx="76.663" cy="73.882" r="2.822" fill="#001171"/>
    <circle cx="99.743" cy="73.882" r="2.822" fill="#001171"/>
    <path d="M8.368,94.959s-7.629,31.923,17.87,29.514S58.563,87.53,58.563,87.53s4.417-5.421,7.629,0" fill="none" stroke="#001171" stroke-linecap="round" stroke-linejoin="round" stroke-width="3.359"/>
    <path d="M168.564,88.519s37.916,40.576-16.412,68.306c0,0,5.093,7.357-6.791,10.187" fill="none" stroke="#001171" stroke-linecap="round" stroke-linejoin="round" stroke-width="3.359"/>
  </g>
</svg>
