<svg xmlns="http://www.w3.org/2000/svg" width="158.977" height="170.551" viewBox="0 0 158.977 170.551">
  <title>chani depress</title>
  <g>
    <g>
      <g>
        <g>
          <g>
            <path d="M120.814,151.81l-83.232-.639C8.472,150.948-9.48,119.3,5.268,94.2L47.437,22.436c-.015-14.375,3.745-19.45,7.229-21.4C60.772-2.4,65.909,3.825,80.331,3.78c13.142-.042,17.38-5.235,23.464-2.128,3.847,1.965,8.093,7.077,9.14,21.286L154,95.339C168.359,120.66,149.924,152.033,120.814,151.81Z" fill="#ffad1c"/>
            <path d="M59.638,37.294a13.109,13.109,0,0,0,13.232,0" fill="none" stroke="#001171" stroke-linecap="round" stroke-linejoin="round" stroke-width="3.359"/>
            <path d="M84.947,37.294a13.109,13.109,0,0,0,13.232,0" fill="none" stroke="#001171" stroke-linecap="round" stroke-linejoin="round" stroke-width="3.359"/>
            <path d="M72.643,52.361a9.606,9.606,0,0,1,14.058.114" fill="none" stroke="#001171" stroke-linecap="round" stroke-linejoin="round" stroke-width="3.359"/>
          </g>
          <path d="M60.168,151.345l-2.756,17.291s1.163-1.037,4.963,0" fill="none" stroke="#001171" stroke-linecap="round" stroke-linejoin="round" stroke-width="3.359"/>
          <line x1="96.935" y1="151.345" x2="99.692" y2="168.636" fill="none" stroke="#001171" stroke-linecap="round" stroke-linejoin="round" stroke-width="3.359"/>
          <path d="M24.722,63.774s-8.976,43.468,41.26,44.687" fill="none" stroke="#001171" stroke-linecap="round" stroke-linejoin="round" stroke-width="3.359"/>
          <path d="M134.911,63.774s9.62,43.469-44.213,44.687" fill="none" stroke="#001171" stroke-linecap="round" stroke-linejoin="round" stroke-width="3.359"/>
        </g>
        <path d="M66.621,108.461s2.964-7.934,6.735-6.048" fill="none" stroke="#001171" stroke-linecap="round" stroke-linejoin="round" stroke-width="3.359"/>
        <path d="M90.5,108.461s-2.964-7.934-6.736-6.048" fill="none" stroke="#001171" stroke-linecap="round" stroke-linejoin="round" stroke-width="3.359"/>
      </g>
      <path d="M99.692,169.14s-3.784-1.268-5.4,0" fill="none" stroke="#000" stroke-linecap="round" stroke-linejoin="round" stroke-width="2.821"/>
    </g>
    <path d="M56.593,40.3s-5.228,6.891-2.139,7.6S60.553,46.635,56.593,40.3Z" fill="none" stroke="#001171" stroke-linecap="round" stroke-linejoin="round" stroke-width="3.359"/>
  </g>
</svg>
