<svg xmlns="http://www.w3.org/2000/svg" width="265.349" height="189.516" viewBox="0 0 265.349 189.516">
  <title>chani happy</title>
  <g>
    <path d="M99.954,183.5l-30.76,3.9s-6.23-10.953-10.384-8.369" fill="none" stroke="#001171" stroke-linecap="round" stroke-linejoin="round" stroke-width="3.359"/>
    <path d="M170.239,181.623l30.759,3.9s6.231-10.952,10.384-8.369" fill="none" stroke="#001171" stroke-linecap="round" stroke-linejoin="round" stroke-width="3.359"/>
    <g>
      <path d="M227.4,94.666c1.62,9.291,8.165,46.812-15.317,72.69C191,190.6,158.892,189.9,132.733,189.333c-24.977-.542-66.312-1.438-86.7-31.2-16.11-23.515-10.279-52.1-7.962-63.465C45.517,58.14,77.034.029,132.733,0,186.9-.028,220.463,54.9,227.4,94.666Z" fill="#ffad1c"/>
      <path d="M104.978,45.03a10.64,10.64,0,0,1,16.317,0" fill="none" stroke="#001171" stroke-linecap="round" stroke-linejoin="round" stroke-width="3.359"/>
      <path d="M139.963,45.03a10.64,10.64,0,0,1,16.317,0" fill="none" stroke="#001171" stroke-linecap="round" stroke-linejoin="round" stroke-width="3.359"/>
      <path d="M131.655,52.9c2.352-.245,4.22,1.3,4.385,2.823.183,1.69-1.683,3.831-4.385,3.666,2.6-.316,4.573,1.483,4.62,3.026.048,1.586-1.917,3.559-4.62,3.269" fill="none" stroke="#001171" stroke-linecap="round" stroke-linejoin="round" stroke-width="3.359"/>
    </g>
    <path d="M50.891,71.168,13.037,102.931S.854,102.06,1.724,106.847" fill="none" stroke="#001171" stroke-linecap="round" stroke-linejoin="round" stroke-width="3.359"/>
    <path d="M214.458,71.168l37.854,31.763s12.183-.871,11.313,3.916" fill="none" stroke="#001171" stroke-linecap="round" stroke-linejoin="round" stroke-width="3.359"/>
  </g>
</svg>
