<svg xmlns="http://www.w3.org/2000/svg" width="169.187" height="208.992" viewBox="0 0 169.187 208.992">
  <title>chani worry</title>
  <g>
    <g>
      <path d="M72.224,171.655s-8.915,5.881-4.161,12.6,8.426,7.905,2.579,12.66-.483,10.4-.483,10.4-10.713-2.674-10.713,0" fill="none" stroke="#001171" stroke-linecap="round" stroke-linejoin="round" stroke-width="3.359"/>
      <path d="M102.75,171.655s-8.915,5.881-4.16,12.6,8.425,7.905,2.578,12.66-.483,10.4-.483,10.4-10.713-2.674-10.713,0" fill="none" stroke="#001171" stroke-linecap="round" stroke-linejoin="round" stroke-width="3.359"/>
      <path d="M2.957,142.387c-4.551-12.059-3-22.91-.966-36.811C6.8,72.687,21.645,48.893,31.355,35.86,23.873,9.812,25.166,2.1,28.267.43c7.175-3.852,32.044,19.479,42.885,17.48,3.144-.58,8.08-2.2,15.844-2.034a56.8,56.8,0,0,1,15.741,2.718,85.7,85.7,0,0,1,25.419,13.318c18.256,14.064,34.17,40.042,38.769,70.174,2.284,14.963,4.1,26.856-1.1,40.3-12.2,31.53-52.743,45.118-82.538,44.807C54.77,186.9,14.784,173.724,2.957,142.387Z" fill="#ffad1c"/>
      <path d="M57.928,89.84a7.556,7.556,0,0,1,8.358,0,8.045,8.045,0,0,0,3.842,1.268A8.13,8.13,0,0,0,74.96,89.84a8.358,8.358,0,0,1,8.829,0,6.357,6.357,0,0,0,3.813,1.6,6.445,6.445,0,0,0,4.55-1.6,7.9,7.9,0,0,1,8.209,0,6.546,6.546,0,0,0,7.745,0" fill="none" stroke="#001171" stroke-linecap="round" stroke-linejoin="round" stroke-width="3.359"/>
      <path d="M12.759,93.363s2.309,14.758,11.149,11.628,14.08,3.99,14.136,7.429,9.206,3.115,10.563-.3" fill="none" stroke="#001171" stroke-linecap="round" stroke-linejoin="round" stroke-width="3.359"/>
      <path d="M152.688,91.448s-3.321,14.563-11.925,10.831-14.321,3.01-14.615,6.437-9.4,2.474-10.517-1.025" fill="none" stroke="#001171" stroke-linecap="round" stroke-linejoin="round" stroke-width="3.359"/>
    </g>
    <line x1="112.258" y1="70.915" x2="99.624" y2="61.586" fill="none" stroke="#001171" stroke-linecap="round" stroke-linejoin="round" stroke-width="3.359"/>
    <line x1="99.544" y1="70.805" x2="112.338" y2="61.697" fill="none" stroke="#001171" stroke-linecap="round" stroke-linejoin="round" stroke-width="3.359"/>
    <line x1="73.24" y1="70.07" x2="60.607" y2="60.741" fill="none" stroke="#001171" stroke-linecap="round" stroke-linejoin="round" stroke-width="3.359"/>
    <line x1="60.526" y1="69.959" x2="73.321" y2="60.851" fill="none" stroke="#001171" stroke-linecap="round" stroke-linejoin="round" stroke-width="3.359"/>
  </g>
</svg>
