<svg xmlns="http://www.w3.org/2000/svg" width="169.833" height="174.3" viewBox="0 0 169.833 174.3">
  <title>chani anxious</title>
  <g>
    <g>
      <g>
        <line x1="70.782" y1="145.252" x2="70.782" y2="169.607" fill="none" stroke="#001171" stroke-linecap="round" stroke-linejoin="round" stroke-width="2.882"/>
        <line x1="98.73" y1="145.252" x2="98.73" y2="169.607" fill="none" stroke="#001171" stroke-linecap="round" stroke-linejoin="round" stroke-width="2.882"/>
        <path d="M65.3,172.859s4.7-4.029,10.967,0" fill="none" stroke="#001171" stroke-linecap="round" stroke-linejoin="round" stroke-width="2.882"/>
        <path d="M93.247,172.859s4.7-4.029,10.967,0" fill="none" stroke="#001171" stroke-linecap="round" stroke-linejoin="round" stroke-width="2.882"/>
      </g>
      <path d="M115.186,139.062l49.929-86.48c13.453-23.3-3.492-55.055-30.269-52.428-12.5,1.226-25.9,5.131-49.971,5.131S47.465,1.382,34.987.154C8.21-2.482-8.735,29.281,4.718,52.582l49.929,86.48C68.1,162.364,101.733,162.364,115.186,139.062Z" fill="#ffad1c"/>
    </g>
    <path d="M55.881,48.853A7.192,7.192,0,0,1,62.7,41.739c5.773,0,7.538,3.884,7.815,5.861.375,2.668-2.808,5.8-6.641,5.248-1.432-.207-3.34-2.36-2.9-3.915.554-1.953,2.906-2.989,4.067-1.828" fill="none" stroke="#001171" stroke-linecap="round" stroke-linejoin="round" stroke-width="2.882"/>
    <path d="M101.21,48.853a7.192,7.192,0,0,1,6.823-7.114c5.773,0,7.538,3.884,7.815,5.861.375,2.668-2.808,5.8-6.641,5.248-1.433-.207-3.34-2.36-2.9-3.915.554-1.953,2.906-2.989,4.066-1.828" fill="none" stroke="#001171" stroke-linecap="round" stroke-linejoin="round" stroke-width="2.882"/>
    <g>
      <path d="M61.553,66.4a7.556,7.556,0,0,1,8.358,0,8.036,8.036,0,0,0,3.841,1.268A8.127,8.127,0,0,0,78.584,66.4a8.358,8.358,0,0,1,8.829,0,6.353,6.353,0,0,0,3.814,1.6,6.453,6.453,0,0,0,4.55-1.6,7.9,7.9,0,0,1,8.209,0,6.544,6.544,0,0,0,7.744,0" fill="none" stroke="#001171" stroke-linecap="round" stroke-linejoin="round" stroke-width="3.359"/>
      <path d="M16.383,69.92s2.309,14.757,11.15,11.627,14.079,3.991,14.136,7.429,9.205,3.116,10.563-.3" fill="none" stroke="#001171" stroke-linecap="round" stroke-linejoin="round" stroke-width="3.359"/>
      <path d="M156.312,68.005s-3.321,14.563-11.925,10.831-14.321,3.01-14.614,6.437-9.4,2.473-10.518-1.025" fill="none" stroke="#001171" stroke-linecap="round" stroke-linejoin="round" stroke-width="3.359"/>
    </g>
    <path d="M135.842,54.176s-7.4,9.756-3.027,10.765S141.449,63.147,135.842,54.176Z" fill="none" stroke="#001171" stroke-linecap="round" stroke-linejoin="round" stroke-width="3.359"/>
    <path d="M35.11,27.907s-7.4,9.756-3.027,10.765S40.717,36.878,35.11,27.907Z" fill="none" stroke="#001171" stroke-linecap="round" stroke-linejoin="round" stroke-width="3.359"/>
  </g>
</svg>
