<svg xmlns="http://www.w3.org/2000/svg" width="173.014" height="182.065" viewBox="0 0 173.014 182.065">
  <title>chani sleepy</title>
  <g>
    <g>
      <path d="M153.948,76.685c1.514-.655,17.144-7.646,17.384-19.011a15.405,15.405,0,0,0-3.1-9.088c-11.455-16.451-64.571-9.562-70.167-8.8" fill="none" stroke="#001171" stroke-linecap="round" stroke-linejoin="round" stroke-width="3.359"/>
      <g>
        <path d="M74.9,165.963l-7.788,14.422s-4.42-1.749-8.235,0" fill="none" stroke="#001171" stroke-linecap="round" stroke-linejoin="round" stroke-width="3.359"/>
        <path d="M109.168,165.963l7.789,14.422s4.42-1.749,8.234,0" fill="none" stroke="#001171" stroke-linecap="round" stroke-linejoin="round" stroke-width="3.359"/>
        <g>
          <g>
            <path d="M117.854,165.963H59.46a41.873,41.873,0,0,1-41.873-41.872,67.016,67.016,0,0,1,0-58.395A42.773,42.773,0,0,1,29.851,36.088,41.741,41.741,0,0,1,59.46,23.824h58.394A41.873,41.873,0,0,1,159.727,65.7a72.445,72.445,0,0,1,0,58.4c0,.189-.009.466-.021.8-.559,15.413-10.752,26.439-11.927,27.675C136.087,164.867,121.029,165.83,117.854,165.963Z" fill="#ffad1c"/>
            <polyline points="120.927 35.969 134.699 35.969 120.927 47.735 134.699 47.735" fill="none" stroke="#001171" stroke-linecap="round" stroke-linejoin="round" stroke-width="3.359"/>
            <polyline points="140.114 16.782 153.886 16.782 140.114 28.548 153.886 28.548" fill="none" stroke="#001171" stroke-linecap="round" stroke-linejoin="round" stroke-width="3.359"/>
            <polyline points="155.217 1.679 168.989 1.679 155.217 13.445 168.989 13.445" fill="none" stroke="#001171" stroke-linecap="round" stroke-linejoin="round" stroke-width="3.359"/>
          </g>
          <path d="M19.515,80.053S4.46,76.762,2.017,66.858a14.074,14.074,0,0,1,1.048-8.914c6.77-15.838,35.231-18.67,47.183-19.86a128.165,128.165,0,0,1,23.378-.176,7.3,7.3,0,0,1,2.819-2.776c3.982-2.13,8.4.714,8.584.837" fill="none" stroke="#001171" stroke-linecap="round" stroke-linejoin="round" stroke-width="3.359"/>
        </g>
      </g>
    </g>
    <path d="M82.733,70.382a16.919,16.919,0,0,1,13.293.107" fill="none" stroke="#001171" stroke-linecap="round" stroke-linejoin="round" stroke-width="3.359"/>
    <line x1="72.426" y1="55.376" x2="82.947" y2="55.376" fill="none" stroke="#001171" stroke-linecap="round" stroke-linejoin="round" stroke-width="3.359"/>
    <line x1="70.435" y1="59.004" x2="82.947" y2="59.004" fill="none" stroke="#001171" stroke-linecap="round" stroke-linejoin="round" stroke-width="3.359"/>
    <line x1="93.963" y1="55.691" x2="104.035" y2="55.691" fill="none" stroke="#001171" stroke-linecap="round" stroke-linejoin="round" stroke-width="3.359"/>
    <line x1="93.963" y1="59.004" x2="106.475" y2="59.004" fill="none" stroke="#001171" stroke-linecap="round" stroke-linejoin="round" stroke-width="3.359"/>
  </g>
</svg>
