<svg xmlns="http://www.w3.org/2000/svg" width="200.954" height="170.071" viewBox="0 0 200.954 170.071">
  <title>chani headache</title>
  <g>
    <path d="M91.91,146.207V168.66s5.61-3.764,8.065,0" fill="none" stroke="#001171" stroke-linecap="round" stroke-linejoin="round" stroke-width="2.821"/>
    <path d="M118.358,146.207V168.66s-5.61-3.764-8.065,0" fill="none" stroke="#001171" stroke-linecap="round" stroke-linejoin="round" stroke-width="2.821"/>
    <path d="M185.968,77.574c7.194,14.768,4.679,36.392-3.059,49.629-15.4,26.339-55.223,25.876-83.756,25.544-27.354-.318-69.988-.816-84.472-28.409-6.462-12.311-8.5-32.273-1.531-46.9,1.934-4.059,5.663-10.018,12.537-21.005C31,47.931,33.059,45.419,35.976,40.5c7.211-12.153,9.1-30.851,21.406-37.792C69.313-4.017,86.114,3.875,100.8,4.038s31.653-7.358,43.431-.368c12.154,7.211,13.626,25.947,20.567,38.255,2.475,4.39,4.837,7.621,9.935,16.147C179.472,66.005,184.12,73.778,185.968,77.574Z" fill="#ffad1c"/>
    <line x1="74.945" y1="27.744" x2="87.855" y2="36.852" fill="none" stroke="#001171" stroke-linecap="round" stroke-linejoin="round" stroke-width="2.821"/>
    <line x1="87.735" y1="27.579" x2="75.065" y2="37.018" fill="none" stroke="#001171" stroke-linecap="round" stroke-linejoin="round" stroke-width="2.821"/>
    <line x1="114.205" y1="27.744" x2="127.115" y2="36.852" fill="none" stroke="#001171" stroke-linecap="round" stroke-linejoin="round" stroke-width="2.821"/>
    <line x1="126.995" y1="27.579" x2="114.326" y2="37.018" fill="none" stroke="#001171" stroke-linecap="round" stroke-linejoin="round" stroke-width="2.821"/>
    <path d="M94.108,46.14a21.456,21.456,0,0,1,17.989,0" fill="none" stroke="#001171" stroke-linecap="round" stroke-linejoin="round" stroke-width="2.821"/>
    <path d="M36.627,87.615S-7.062,69.145,2.883,55.647,47.994,19.772,47.994,19.772s-6.039-11.722,0-15.629" fill="none" stroke="#001171" stroke-linecap="round" stroke-linejoin="round" stroke-width="2.821"/>
    <path d="M164.327,87.615s43.689-18.47,33.744-31.968S152.96,19.772,152.96,19.772,159,8.05,152.96,4.143" fill="none" stroke="#001171" stroke-linecap="round" stroke-linejoin="round" stroke-width="2.821"/>
  </g>
</svg>
